<svg width="32" height="25" viewBox="0 0 32 25" fill="none" xmlns="http://www.w3.org/2000/svg">
<path d="M9.73751 22.826L19.3312 0.944245C19.4925 0.578762 19.7905 0.287138 20.1644 0.128874C20.5383 -0.0293898 20.9599 -0.0423654 21.3433 0.0925954C21.7267 0.227556 22.0428 0.500282 22.2273 0.855126C22.4118 1.20997 22.4507 1.62019 22.3361 2.00208L22.2721 2.17396L12.6784 24.0558C12.5171 24.4212 12.2191 24.7129 11.8452 24.8711C11.4713 25.0294 11.0497 25.0424 10.6663 24.9074C10.283 24.7724 9.96677 24.4997 9.78227 24.1449C9.59778 23.79 9.55888 23.3798 9.67351 22.9979L9.73751 22.826L19.3312 0.944245L9.73751 22.8245V22.826ZM0.468584 11.3914L6.86867 5.14122C7.15661 4.86099 7.54298 4.69829 7.9493 4.68617C8.35563 4.67405 8.75144 4.81343 9.05635 5.07599C9.36126 5.33855 9.5524 5.7046 9.59095 6.0998C9.6295 6.495 9.51257 6.88972 9.26391 7.20377L9.13111 7.35065L3.86223 12.4961L9.13111 17.6415C9.42112 17.9221 9.59036 18.3003 9.6042 18.6987C9.61805 19.0971 9.47544 19.4856 9.20556 19.7847C8.93569 20.0838 8.55896 20.2708 8.15249 20.3075C7.74603 20.3443 7.34055 20.2279 7.01908 19.9822L6.86867 19.851L0.468584 13.6008C0.193098 13.3317 0.0276058 12.9738 0.00315558 12.594C-0.0212947 12.2143 0.0969774 11.8389 0.335783 11.5383L0.468584 11.3914L6.86867 5.14122L0.468584 11.3914ZM22.8689 5.13966C23.1444 4.87063 23.511 4.70901 23.8998 4.68514C24.2887 4.66126 24.6731 4.77676 24.9809 5.00997L25.1297 5.13966L31.5314 11.3914C31.8069 11.6604 31.9724 12.0184 31.9968 12.3982C32.0213 12.7779 31.903 13.1533 31.6642 13.4539L31.5314 13.6024L25.1297 19.8447C24.8418 20.1249 24.4554 20.2877 24.0491 20.2998C23.6428 20.3119 23.247 20.1725 22.9421 19.91C22.6371 19.6474 22.446 19.2813 22.4075 18.8861C22.3689 18.4909 22.4858 18.0962 22.7345 17.7822L22.8689 17.6337L28.1346 12.4961L22.8657 7.34909C22.5657 7.05607 22.3972 6.65871 22.3972 6.24438C22.3972 5.83005 22.5657 5.43268 22.8657 5.13966H22.8689Z" fill="white"/>
</svg>
