<svg width="32" height="31" viewBox="0 0 32 31" fill="none" xmlns="http://www.w3.org/2000/svg">
<path d="M32 23.7143V21.2857H29.2987C29.1329 20.5256 28.8133 19.8028 28.3576 19.1571L30.2733 17.3478L28.4553 15.6308L26.5396 17.4401C25.8558 17.0096 25.0905 16.7078 24.2857 16.5512V14H21.7143V16.5512C20.9095 16.7078 20.1442 17.0096 19.4604 17.4401L17.5447 15.6308L15.7267 17.3478L17.6424 19.1571C17.1867 19.8028 16.8671 20.5256 16.7013 21.2857H14V23.7143H16.7013C16.8671 24.4744 17.1867 25.1972 17.6424 25.8429L15.7267 27.6522L17.5447 29.3692L19.4604 27.5599C20.1442 27.9904 20.9095 28.2922 21.7143 28.4488V31H24.2857V28.4488C25.0905 28.2922 25.8558 27.9904 26.5396 27.5599L28.4553 29.3692L30.2733 27.6522L28.3576 25.8429C28.8133 25.1972 29.1329 24.4744 29.2987 23.7143H32ZM23 26.1429C22.2371 26.1429 21.4914 25.9292 20.8571 25.5289C20.2228 25.1286 19.7284 24.5597 19.4365 23.8941C19.1445 23.2284 19.0681 22.496 19.217 21.7893C19.3658 21.0827 19.7332 20.4336 20.2726 19.9241C20.812 19.4146 21.4993 19.0677 22.2475 18.9271C22.9957 18.7866 23.7713 18.8587 24.4761 19.1344C25.1809 19.4102 25.7833 19.8771 26.2071 20.4761C26.6309 21.0752 26.8571 21.7795 26.8571 22.5C26.8561 23.4658 26.4494 24.3919 25.7263 25.0748C25.0032 25.7578 24.0227 26.1419 23 26.1429Z" fill="white"/>
<path d="M29.7143 0H2.28571C1.67969 0.000683907 1.09866 0.273076 0.670139 0.757396C0.241615 1.24172 0.000605116 1.8984 0 2.58333V28.4167C0.000605116 29.1016 0.241615 29.7583 0.670139 30.2426C1.09866 30.7269 1.67969 30.9993 2.28571 31H13.7143V28.4167H2.28571V10.3333H29.7143V14.2083H32V2.58333C31.9994 1.8984 31.7584 1.24172 31.3299 0.757396C30.9013 0.273076 30.3203 0.000683907 29.7143 0ZM29.7143 7.75H2.28571V2.58333H29.7143V7.75Z" fill="white"/>
<path d="M18 6C18.5523 6 19 5.55228 19 5C19 4.44772 18.5523 4 18 4C17.4477 4 17 4.44772 17 5C17 5.55228 17.4477 6 18 6Z" fill="white"/>
<path d="M22 6C22.5523 6 23 5.55228 23 5C23 4.44772 22.5523 4 22 4C21.4477 4 21 4.44772 21 5C21 5.55228 21.4477 6 22 6Z" fill="white"/>
</svg>
