<svg width="33" height="32" viewBox="0 0 33 32" fill="none" xmlns="http://www.w3.org/2000/svg">
<path d="M32.6132 5.49396L27.3344 0.375116C27.0841 0.134809 26.7462 0 26.3941 0C26.0419 0 25.704 0.134809 25.4538 0.375116L9.61734 15.7317C9.37224 15.9754 9.23594 16.303 9.23792 16.6435V21.7623C9.23792 22.1017 9.37696 22.4272 9.62445 22.6672C9.87195 22.9072 10.2076 23.042 10.5576 23.042H15.8364C16.1875 23.0439 16.5253 22.9118 16.7767 22.6741L32.6132 7.31755C32.861 7.07493 33 6.74725 33 6.40576C33 6.06427 32.861 5.73659 32.6132 5.49396ZM15.2921 20.4826H11.8773V17.1713L22.435 6.93364L25.8497 10.2449L15.2921 20.4826ZM27.7138 8.4373L24.299 5.12605L26.3941 3.0945L29.8088 6.40576L27.7138 8.4373ZM31.6729 15.3637V29.4406C31.6729 30.1194 31.3948 30.7704 30.8998 31.2504C30.4048 31.7303 29.7335 32 29.0335 32H2.63941C1.93939 32 1.26805 31.7303 0.773064 31.2504C0.278079 30.7704 0 30.1194 0 29.4406V3.84633C0 3.16753 0.278079 2.51653 0.773064 2.03655C1.26805 1.55656 1.93939 1.28691 2.63941 1.28691H17.1561C17.5061 1.28691 17.8418 1.42174 18.0893 1.66173C18.3368 1.90172 18.4758 2.22722 18.4758 2.56662C18.4758 2.90602 18.3368 3.23152 18.0893 3.47152C17.8418 3.71151 17.5061 3.84633 17.1561 3.84633H2.63941V29.4406H29.0335V15.3637C29.0335 15.0243 29.1725 14.6988 29.42 14.4589C29.6675 14.2189 30.0032 14.084 30.3532 14.084C30.7032 14.084 31.0389 14.2189 31.2863 14.4589C31.5338 14.6988 31.6729 15.0243 31.6729 15.3637Z" fill="white"/>
</svg>
