<svg width="32" height="31" viewBox="0 0 32 31" fill="none" xmlns="http://www.w3.org/2000/svg">
<path d="M28.5662 12.0922C29.719 12.731 30.6537 13.6787 31.2563 14.8199C31.8589 15.9611 32.1034 17.2464 31.9601 18.519C31.8167 19.7916 31.2916 20.9966 30.4488 21.9869C29.606 22.9773 28.4819 23.7103 27.2137 24.0965C26.7655 26.0539 25.636 27.8053 24.0123 29.0607C22.3886 30.3162 20.368 31.0004 18.2851 31H14.8581C14.5551 31 14.2646 30.8842 14.0503 30.678C13.8361 30.4719 13.7158 30.1923 13.7158 29.9007C13.7158 29.6092 13.8361 29.3295 14.0503 29.1234C14.2646 28.9172 14.5551 28.8014 14.8581 28.8014H18.2851C19.7031 28.8018 21.0862 28.3792 22.2442 27.5917C23.4021 26.8042 24.2778 25.6906 24.7508 24.4043H23.9969C23.6939 24.4043 23.4033 24.2884 23.1891 24.0823C22.9749 23.8761 22.8545 23.5965 22.8545 23.305V12.3121C22.8545 12.0205 22.9749 11.7409 23.1891 11.5347C23.4033 11.3286 23.6939 11.2128 23.9969 11.2128H25.1392C25.5093 11.2128 25.8726 11.2413 26.229 11.2963C25.9718 8.85785 24.7832 6.59805 22.8935 4.95477C21.0037 3.31149 18.5474 2.40171 16.0004 2.40171C13.4535 2.40171 10.9971 3.31149 9.10742 4.95477C7.21769 6.59805 6.02908 8.85785 5.7719 11.2963C6.1323 11.2408 6.49671 11.2128 6.8617 11.2128H8.00404C8.30701 11.2128 8.59757 11.3286 8.8118 11.5347C9.02603 11.7409 9.14638 12.0205 9.14638 12.3121V23.305C9.14638 23.5965 9.02603 23.8761 8.8118 24.0823C8.59757 24.2884 8.30701 24.4043 8.00404 24.4043H6.8617C5.35148 24.4059 3.88298 23.9275 2.68437 23.0433C1.48576 22.1592 0.624145 20.9189 0.233397 19.5151C-0.157352 18.1113 -0.0553564 16.6226 0.523537 15.2803C1.10243 13.938 2.12581 12.8172 3.43467 12.0922C3.43467 8.88515 4.75856 5.80945 7.1151 3.54172C9.47164 1.274 12.6678 0 16.0004 0C19.3331 0 22.5293 1.274 24.8858 3.54172C27.2423 5.80945 28.5662 8.88515 28.5662 12.0922ZM6.8617 13.4113C5.64982 13.4113 4.48758 13.8746 3.63066 14.6992C2.77374 15.5239 2.29232 16.6423 2.29232 17.8085C2.29232 18.9747 2.77374 20.0931 3.63066 20.9178C4.48758 21.7424 5.64982 22.2057 6.8617 22.2057V13.4113ZM29.7086 17.8085C29.7086 16.6423 29.2272 15.5239 28.3702 14.6992C27.5133 13.8746 26.3511 13.4113 25.1392 13.4113V22.2057C26.3511 22.2057 27.5133 21.7424 28.3702 20.9178C29.2272 20.0931 29.7086 18.9747 29.7086 17.8085Z" fill="white"/>
</svg>
