<svg width="116" height="51" viewBox="0 0 116 51" fill="none" xmlns="http://www.w3.org/2000/svg">
<path d="M2.46851 3.20325H115.469V49.2032H2.46851V3.20325Z" fill="#5E17EB"/>
<path d="M6.34351 34.7831V4.00757H12.7889V16.7058H25.8745V4.00757H32.3058V34.7831H25.8745V22.0707H12.7889V34.7831H6.34351Z" fill="#8C52FF"/>
<path d="M44.8568 35.2342C42.5144 35.2342 40.4949 34.7508 38.798 33.7841C37.1009 32.8173 35.7959 31.4447 34.8826 29.6663C33.9701 27.888 33.5139 25.7819 33.5139 23.3476C33.5139 20.9731 33.9701 18.8894 34.8826 17.0961C35.7959 15.3032 37.0836 13.906 38.7456 12.9047C40.4081 11.9028 42.3614 11.4016 44.6046 11.4016C46.6189 11.4016 48.4374 11.8326 50.0603 12.694C51.6828 13.5558 52.9706 14.8557 53.9232 16.5933C54.8758 18.3313 55.3521 20.5078 55.3521 23.1227V24.8804H39.7814V24.896C39.7814 26.6185 40.2474 27.9755 41.1796 28.9671C42.1123 29.9591 43.3732 30.4547 44.9618 30.4547C46.0236 30.4547 46.9416 30.2295 47.7159 29.7788C48.4899 29.3284 49.036 28.6621 49.3535 27.7807L55.2189 28.171C54.7714 30.3148 53.6396 32.0283 51.8234 33.311C50.0078 34.5931 47.6855 35.2342 44.8568 35.2342ZM39.7814 20.9127H49.383C49.3727 19.5411 48.9355 18.4092 48.0719 17.5174C47.2089 16.6256 46.0876 16.1798 44.7083 16.1798C43.2989 16.1798 42.1427 16.6408 41.2397 17.5627C40.3364 18.4838 39.8505 19.6005 39.7814 20.9127Z" fill="#8C52FF"/>
<path d="M56.428 43.4386V11.7015H62.6801V15.5788H62.963C63.2505 14.9481 63.6573 14.3122 64.1833 13.6711C64.7089 13.0294 65.4035 12.4908 66.2664 12.0556C67.1301 11.6197 68.1976 11.4016 69.4687 11.4016C71.146 11.4016 72.684 11.8397 74.0832 12.716C75.482 13.5923 76.6058 14.9099 77.4544 16.6683C78.3027 18.426 78.7271 20.6277 78.7271 23.2727C78.7271 25.8472 78.3152 28.0185 77.4915 29.7865C76.6676 31.5546 75.5562 32.8923 74.1574 33.7996C72.7583 34.7062 71.1901 35.1592 69.4533 35.1592C68.2222 35.1592 67.1774 34.9537 66.3189 34.5427C65.4611 34.1317 64.7613 33.6135 64.2204 32.9879C63.6801 32.3617 63.2607 31.7278 62.963 31.0867H62.7697V43.4386H56.428ZM62.6353 23.2429C62.6353 25.2963 63.0543 26.9467 63.8926 28.1943C64.7316 29.4411 65.915 30.0644 67.4431 30.0644C69.0017 30.0644 70.1927 29.4311 71.0167 28.1645C71.8403 26.8973 72.2522 25.2566 72.2522 23.2429C72.2522 21.239 71.8425 19.6134 71.0231 18.3666C70.2043 17.119 69.0109 16.4951 67.4431 16.4951C65.9047 16.4951 64.7188 17.1038 63.8849 18.3213C63.0517 19.5388 62.6353 21.1796 62.6353 23.2429Z" fill="#8C52FF"/>
<path d="M86.2192 21.4387V34.7831H79.8774V4.00757H86.0399V15.7739H86.3075C86.8341 14.4117 87.6702 13.3425 88.8158 12.5661C89.962 11.79 91.4038 11.4016 93.1409 11.4016C95.5224 11.4016 97.4372 12.1732 98.886 13.7164C100.335 15.2589 101.055 17.3824 101.046 20.0868V34.7831H94.7043V21.2293C94.7135 19.807 94.3586 18.7 93.639 17.909C92.9201 17.1174 91.9156 16.7213 90.625 16.7213C89.335 16.7213 88.2806 17.1345 87.4611 17.9607C86.6423 18.7872 86.2285 19.9466 86.2192 21.4387Z" fill="#8C52FF"/>
<path d="M4.80908 34.7831V4.00757H11.2545V16.7058H24.34V4.00757H30.7714V34.7831H24.34V22.0707H11.2545V34.7831H4.80908Z" fill="#CB6CE6"/>
<path d="M43.3224 35.2342C40.9799 35.2342 38.9605 34.7508 37.2636 33.7841C35.5665 32.8173 34.2615 31.4447 33.3482 29.6663C32.4356 27.888 31.9795 25.7819 31.9795 23.3476C31.9795 20.9731 32.4356 18.8894 33.3482 17.0961C34.2615 15.3032 35.5492 13.906 37.2111 12.9047C38.8737 11.9028 40.8269 11.4016 43.0702 11.4016C45.0845 11.4016 46.903 11.8326 48.5259 12.694C50.1484 13.5558 51.4362 14.8557 52.3888 16.5933C53.3414 18.3313 53.8177 20.5078 53.8177 23.1227V24.8804H38.247V24.896C38.247 26.6185 38.713 27.9755 39.6451 28.9671C40.5779 29.9591 41.8388 30.4547 43.4274 30.4547C44.4891 30.4547 45.4072 30.2295 46.1815 29.7788C46.9555 29.3284 47.5016 28.6621 47.8191 27.7807L53.6845 28.171C53.237 30.3148 52.1052 32.0283 50.289 33.311C48.4734 34.5931 46.1511 35.2342 43.3224 35.2342ZM38.247 20.9127H47.8485C47.8383 19.5411 47.4011 18.4092 46.5374 17.5174C45.6745 16.6256 44.5532 16.1798 43.1739 16.1798C41.7645 16.1798 40.6083 16.6408 39.7053 17.5627C38.802 18.4838 38.3161 19.6005 38.247 20.9127Z" fill="#CB6CE6"/>
<path d="M54.8936 43.4386V11.7015H61.1457V15.5788H61.4286C61.7161 14.9481 62.1229 14.3122 62.6488 13.6711C63.1744 13.0294 63.869 12.4908 64.732 12.0556C65.5956 11.6197 66.6631 11.4016 67.9342 11.4016C69.6115 11.4016 71.1496 11.8397 72.5487 12.716C73.9476 13.5923 75.0714 14.9099 75.92 16.6683C76.7682 18.426 77.1927 20.6277 77.1927 23.2727C77.1927 25.8472 76.7807 28.0185 75.9571 29.7865C75.1332 31.5546 74.0218 32.8923 72.623 33.7996C71.2239 34.7062 69.6557 35.1592 67.9189 35.1592C66.6878 35.1592 65.643 34.9537 64.7845 34.5427C63.9266 34.1317 63.2269 33.6135 62.686 32.9879C62.1456 32.3617 61.7263 31.7278 61.4286 31.0867H61.2353V43.4386H54.8936ZM61.1008 23.2429C61.1008 25.2963 61.5199 26.9467 62.3582 28.1943C63.1972 29.4411 64.3805 30.0644 65.9087 30.0644C67.4672 30.0644 68.6583 29.4311 69.4822 28.1645C70.3058 26.8973 70.7178 25.2566 70.7178 23.2429C70.7178 21.239 70.3081 19.6134 69.4886 18.3666C68.6698 17.119 67.4765 16.4951 65.9087 16.4951C64.3703 16.4951 63.1843 17.1038 62.3505 18.3213C61.5173 19.5388 61.1008 21.1796 61.1008 23.2429Z" fill="#CB6CE6"/>
<path d="M84.685 21.4387V34.7831H78.3433V4.00757H84.5057V15.7739H84.7733C85.2999 14.4117 86.136 13.3425 87.2816 12.5661C88.4279 11.79 89.8696 11.4016 91.6067 11.4016C93.9882 11.4016 95.9031 12.1732 97.3518 13.7164C98.8012 15.2589 99.5211 17.3824 99.5118 20.0868V34.7831H93.1701V21.2293C93.1794 19.807 92.8244 18.7 92.1048 17.909C91.3859 17.1174 90.3814 16.7213 89.0908 16.7213C87.8008 16.7213 86.7464 17.1345 85.927 17.9607C85.1082 18.7872 84.6943 19.9466 84.685 21.4387Z" fill="#CB6CE6"/>
<path d="M3.6748 34.7831V4.00757H10.1202V16.7058H23.2058V4.00757H29.6371V34.7831H23.2058V22.0707H10.1202V34.7831H3.6748Z" fill="#FF66C4"/>
<path d="M42.1881 35.2342C39.8457 35.2342 37.8262 34.7508 36.1293 33.7841C34.4322 32.8173 33.1272 31.4447 32.2139 29.6663C31.3014 27.888 30.8452 25.7819 30.8452 23.3476C30.8452 20.9731 31.3014 18.8894 32.2139 17.0961C33.1272 15.3032 34.4149 13.906 36.0769 12.9047C37.7394 11.9028 39.6927 11.4016 41.9359 11.4016C43.9502 11.4016 45.7687 11.8326 47.3916 12.694C49.0141 13.5558 50.3019 14.8557 51.2545 16.5933C52.2071 18.3313 52.6834 20.5078 52.6834 23.1227V24.8804H37.1127V24.896C37.1127 26.6185 37.5787 27.9755 38.5109 28.9671C39.4436 29.9591 40.7045 30.4547 42.2931 30.4547C43.3549 30.4547 44.2729 30.2295 45.0472 29.7788C45.8212 29.3284 46.3673 28.6621 46.6848 27.7807L52.5502 28.171C52.1027 30.3148 50.9709 32.0283 49.1547 33.311C47.3391 34.5931 45.0168 35.2342 42.1881 35.2342ZM37.1127 20.9127H46.7143C46.704 19.5411 46.2668 18.4092 45.4032 17.5174C44.5402 16.6256 43.4189 16.1798 42.0396 16.1798C40.6302 16.1798 39.474 16.6408 38.571 17.5627C37.6677 18.4838 37.1818 19.6005 37.1127 20.9127Z" fill="#FF66C4"/>
<path d="M53.7593 43.4386V11.7015H60.0114V15.5788H60.2943C60.5818 14.9481 60.9886 14.3122 61.5146 13.6711C62.0401 13.0294 62.7348 12.4908 63.5977 12.0556C64.4614 11.6197 65.5289 11.4016 66.8 11.4016C68.4773 11.4016 70.0153 11.8397 71.4145 12.716C72.8133 13.5923 73.9371 14.9099 74.7857 16.6683C75.634 18.426 76.0584 20.6277 76.0584 23.2727C76.0584 25.8472 75.6464 28.0185 74.8228 29.7865C73.9989 31.5546 72.8875 32.8923 71.4887 33.7996C70.0896 34.7062 68.5214 35.1592 66.7846 35.1592C65.5535 35.1592 64.5087 34.9537 63.6502 34.5427C62.7924 34.1317 62.0926 33.6135 61.5517 32.9879C61.0114 32.3617 60.592 31.7278 60.2943 31.0867H60.101V43.4386H53.7593ZM59.9666 23.2429C59.9666 25.2963 60.3856 26.9467 61.2239 28.1943C62.0629 29.4411 63.2463 30.0644 64.7744 30.0644C66.3329 30.0644 67.524 29.4311 68.348 28.1645C69.1716 26.8973 69.5835 25.2566 69.5835 23.2429C69.5835 21.239 69.1738 19.6134 68.3544 18.3666C67.5355 17.119 66.3422 16.4951 64.7744 16.4951C63.236 16.4951 62.0501 17.1038 61.2162 18.3213C60.383 19.5388 59.9666 21.1796 59.9666 23.2429Z" fill="#FF66C4"/>
<path d="M83.5507 21.4387V34.7831H77.209V4.00757H83.3715V15.7739H83.6391C84.1656 14.4117 85.0017 13.3425 86.1473 12.5661C87.2936 11.79 88.7353 11.4016 90.4725 11.4016C92.854 11.4016 94.7688 12.1732 96.2175 13.7164C97.6669 15.2589 98.3868 17.3824 98.3775 20.0868V34.7831H92.0358V21.2293C92.0451 19.807 91.6901 18.7 90.9705 17.909C90.2516 17.1174 89.2471 16.7213 87.9565 16.7213C86.6665 16.7213 85.6121 17.1345 84.7927 17.9607C83.9739 18.7872 83.56 19.9466 83.5507 21.4387Z" fill="#FF66C4"/>
<path d="M2.64331 34.7831V4.00757H9.08875V16.7058H22.1743V4.00757H28.6056V34.7831H22.1743V22.0707H9.08875V34.7831H2.64331Z" fill="white"/>
<path d="M41.1569 35.2342C38.8144 35.2342 36.7949 34.7508 35.0981 33.7841C33.401 32.8173 32.0959 31.4447 31.1827 29.6663C30.2701 27.888 29.814 25.7819 29.814 23.3476C29.814 20.9731 30.2701 18.8894 31.1827 17.0961C32.0959 15.3032 33.3837 13.906 35.0456 12.9047C36.7082 11.9028 38.6614 11.4016 40.9046 11.4016C42.919 11.4016 44.7375 11.8326 46.3603 12.694C47.9829 13.5558 49.2707 14.8557 50.2233 16.5933C51.1759 18.3313 51.6522 20.5078 51.6522 23.1227V24.8804H36.0814V24.896C36.0814 26.6185 36.5475 27.9755 37.4796 28.9671C38.4124 29.9591 39.6732 30.4547 41.2619 30.4547C42.3236 30.4547 43.2417 30.2295 44.016 29.7788C44.79 29.3284 45.336 28.6621 45.6536 27.7807L51.519 28.171C51.0715 30.3148 49.9397 32.0283 48.1234 33.311C46.3078 34.5931 43.9856 35.2342 41.1569 35.2342ZM36.0814 20.9127H45.683C45.6728 19.5411 45.2355 18.4092 44.3719 17.5174C43.5089 16.6256 42.3876 16.1798 41.0083 16.1798C39.599 16.1798 38.4428 16.6408 37.5398 17.5627C36.6365 18.4838 36.1506 19.6005 36.0814 20.9127Z" fill="white"/>
<path d="M52.728 43.4386V11.7015H58.9801V15.5788H59.2631C59.5505 14.9481 59.9574 14.3122 60.4833 13.6711C61.0089 13.0294 61.7035 12.4908 62.5665 12.0556C63.4301 11.6197 64.4976 11.4016 65.7687 11.4016C67.446 11.4016 68.9841 11.8397 70.3832 12.716C71.782 13.5923 72.9059 14.9099 73.7545 16.6683C74.6027 18.426 75.0272 20.6277 75.0272 23.2727C75.0272 25.8472 74.6152 28.0185 73.7916 29.7865C72.9677 31.5546 71.8563 32.8923 70.4575 33.7996C69.0583 34.7062 67.4902 35.1592 65.7534 35.1592C64.5223 35.1592 63.4775 34.9537 62.619 34.5427C61.7611 34.1317 61.0614 33.6135 60.5204 32.9879C59.9801 32.3617 59.5608 31.7278 59.2631 31.0867H59.0698V43.4386H52.728ZM58.9353 23.2429C58.9353 25.2963 59.3543 26.9467 60.1927 28.1943C61.0316 29.4411 62.215 30.0644 63.7432 30.0644C65.3017 30.0644 66.4928 29.4311 67.3167 28.1645C68.1403 26.8973 68.5523 25.2566 68.5523 23.2429C68.5523 21.239 68.1426 19.6134 67.3231 18.3666C66.5043 17.119 65.311 16.4951 63.7432 16.4951C62.2048 16.4951 61.0188 17.1038 60.185 18.3213C59.3518 19.5388 58.9353 21.1796 58.9353 23.2429Z" fill="white"/>
<path d="M82.5192 21.4387V34.7831H76.1775V4.00757H82.34V15.7739H82.6076C83.1341 14.4117 83.9702 13.3425 85.1158 12.5661C86.2621 11.79 87.7038 11.4016 89.441 11.4016C91.8225 11.4016 93.7373 12.1732 95.1861 13.7164C96.6355 15.2589 97.3553 17.3824 97.3461 20.0868V34.7831H91.0043V21.2293C91.0136 19.807 90.6586 18.7 89.939 17.909C89.2201 17.1174 88.2157 16.7213 86.925 16.7213C85.635 16.7213 84.5806 17.1345 83.7612 17.9607C82.9424 18.7872 82.5285 19.9466 82.5192 21.4387Z" fill="white"/>
<path d="M12.7482 4.021V48.7936H11.0405V4.021H12.7482Z" fill="#8C52FF"/>
<path d="M11.8612 4.021V48.7936H10.1538V4.021H11.8612Z" fill="#CB6CE6"/>
<path d="M10.9746 4.01782V48.7969H9.12476V4.01782H10.9746Z" fill="#FF66C4"/>
<path d="M10.0523 4.00269V48.8131H1.94141V4.00269H10.0523Z" fill="white"/>
<path d="M3.11935 35.5294L1.55409 35.5297L1.54858 3.99817L3.11385 3.9979L3.11935 35.5294Z" fill="#5E17EB"/>
<path d="M22.5925 16.6769V22.7097H9.07617V16.6769H22.5925Z" fill="white"/>
<path d="M5.46851 49.2032H1.46851V38.2032H5.46851V49.2032Z" fill="#5E17EB"/>
<path d="M8.46851 49.2032H4.46851V44.2032H8.46851V49.2032Z" fill="#5E17EB"/>
<path d="M68.8149 40.5262V39.531H73.4614V40.5262H71.7291V45.2423H70.5473V40.5262H68.8149Z" fill="white"/>
<path d="M75.572 45.3263C75.1373 45.3263 74.7628 45.2368 74.4478 45.0575C74.1328 44.8775 73.8902 44.6226 73.7206 44.2923C73.5515 43.9624 73.467 43.5718 73.467 43.1201C73.467 42.68 73.5515 42.2936 73.7206 41.9608C73.8902 41.6273 74.1293 41.3682 74.4376 41.1827C74.7465 40.9966 75.1088 40.9036 75.5246 40.9036C75.8985 40.9036 76.2359 40.9837 76.5374 41.144C76.8386 41.3036 77.0777 41.5443 77.2544 41.8664C77.4311 42.1889 77.5194 42.5928 77.5194 43.0787V43.4044H74.6296V43.407C74.6296 43.7269 74.7161 43.9789 74.8895 44.1631C75.0627 44.3476 75.2967 44.4397 75.5912 44.4397C75.7884 44.4397 75.9587 44.398 76.1021 44.3143C76.2461 44.23 76.3479 44.1062 76.4068 43.9434L77.4951 44.0158C77.4122 44.4132 77.2022 44.7311 76.8652 44.9696C76.5278 45.2074 76.0969 45.3263 75.572 45.3263ZM74.6296 42.6677H76.4119C76.41 42.4138 76.329 42.2038 76.1686 42.0383C76.0089 41.8729 75.8012 41.7902 75.5451 41.7902C75.2829 41.7902 75.0682 41.8761 74.9011 42.0474C74.7337 42.218 74.6431 42.4248 74.6296 42.6677Z" fill="white"/>
<path d="M79.6362 45.3263C79.2015 45.3263 78.8282 45.2329 78.5158 45.0458C78.204 44.8591 77.9646 44.5993 77.7975 44.2665C77.6311 43.934 77.5479 43.5511 77.5479 43.1175C77.5479 42.6791 77.6317 42.2939 77.8001 41.9621C77.9691 41.6296 78.2088 41.3701 78.5197 41.184C78.8311 40.9973 79.2015 40.9036 79.631 40.9036C80.0014 40.9036 80.3256 40.9717 80.6041 41.1078C80.8832 41.2432 81.1035 41.4335 81.2648 41.679C81.4261 41.9239 81.5148 42.2115 81.5311 42.5424H80.421C80.3893 42.3288 80.3064 42.1566 80.1726 42.0254C80.0395 41.8945 79.8653 41.829 79.6502 41.829C79.3778 41.829 79.1586 41.9398 78.9921 42.1611C78.8263 42.3828 78.7437 42.6959 78.7437 43.1007C78.7437 43.5101 78.826 43.8267 78.9908 44.0507C79.1563 44.2749 79.3762 44.3867 79.6502 44.3867C79.8525 44.3867 80.0228 44.3253 80.1611 44.2019C80.2994 44.0778 80.3858 43.9014 80.421 43.672H81.5311C81.5132 43.9996 81.4252 44.2878 81.2674 44.5366C81.1102 44.7857 80.8935 44.9796 80.6169 45.1182C80.341 45.2568 80.0142 45.3263 79.6362 45.3263Z" fill="white"/>
<path d="M82.8966 42.766V45.2423H81.72V39.531H82.8634V41.7152H82.9133C83.0106 41.4619 83.1655 41.2635 83.3781 41.1194C83.5912 40.9756 83.8588 40.9036 84.1809 40.9036C84.6229 40.9036 84.9785 41.0467 85.2474 41.3327C85.5163 41.6189 85.6498 42.0131 85.6482 42.5152V45.2423H84.4715V42.7272C84.4731 42.4629 84.4069 42.2574 84.2731 42.1107C84.1399 41.9634 83.9536 41.8897 83.7148 41.8897C83.4747 41.8897 83.2788 41.9666 83.1271 42.1198C82.9751 42.2732 82.8982 42.4888 82.8966 42.766Z" fill="white"/>
<path d="M87.1847 42.766V45.2423H86.0081V40.9591H87.1297V41.7152H87.1796C87.275 41.4655 87.4331 41.2677 87.6533 41.122C87.8736 40.9766 88.1405 40.9036 88.4549 40.9036C88.8969 40.9036 89.2516 41.047 89.5189 41.3339C89.7858 41.6209 89.9196 42.0147 89.9196 42.5152V45.2423H88.743V42.7272C88.7446 42.4655 88.678 42.2603 88.5432 42.112C88.4091 41.964 88.2244 41.8897 87.9888 41.8897C87.7513 41.8897 87.5586 41.9666 87.4101 42.1197C87.2616 42.2732 87.1863 42.4887 87.1847 42.766Z" fill="white"/>
<path d="M92.1933 45.3263C91.7637 45.3263 91.393 45.2339 91.0806 45.0484C90.7689 44.8633 90.5281 44.6048 90.3585 44.273C90.1895 43.9414 90.105 43.5563 90.105 43.1175C90.105 42.6749 90.1895 42.2874 90.3585 41.9556C90.5281 41.6241 90.7689 41.3659 91.0806 41.1814C91.393 40.9963 91.7637 40.9036 92.1933 40.9036C92.6225 40.9036 92.9929 40.9963 93.3046 41.1814C93.6171 41.3659 93.8578 41.6241 94.0268 41.9556C94.1964 42.2874 94.2816 42.6749 94.2816 43.1175C94.2816 43.5563 94.1964 43.9414 94.0268 44.273C93.8578 44.6048 93.6171 44.8633 93.3046 45.0484C92.9929 45.2339 92.6225 45.3263 92.1933 45.3263ZM92.1997 44.4061C92.4897 44.4061 92.7099 44.2833 92.8604 44.0377C93.0105 43.7922 93.0857 43.4826 93.0857 43.1085C93.0857 42.7356 93.0105 42.4257 92.8604 42.1792C92.7099 41.933 92.4897 41.8096 92.1997 41.8096C91.9026 41.8096 91.6786 41.933 91.5275 42.1792C91.3764 42.4257 91.3009 42.7356 91.3009 43.1085C91.3009 43.4826 91.3764 43.7922 91.5275 44.0377C91.6786 44.2833 91.9026 44.4061 92.1997 44.4061Z" fill="white"/>
<path d="M95.6584 39.531V45.2423H94.4817V39.531H95.6584Z" fill="white"/>
<path d="M97.9462 45.3263C97.5166 45.3263 97.146 45.2339 96.8336 45.0484C96.5218 44.8633 96.2811 44.6048 96.1114 44.273C95.9424 43.9414 95.8579 43.5563 95.8579 43.1175C95.8579 42.6749 95.9424 42.2874 96.1114 41.9556C96.2811 41.6241 96.5218 41.3659 96.8336 41.1814C97.146 40.9963 97.5166 40.9036 97.9462 40.9036C98.3755 40.9036 98.7458 40.9963 99.0576 41.1814C99.37 41.3659 99.6107 41.6241 99.7797 41.9556C99.9494 42.2874 100.035 42.6749 100.035 43.1175C100.035 43.5563 99.9494 43.9414 99.7797 44.273C99.6107 44.6048 99.37 44.8633 99.0576 45.0484C98.7458 45.2339 98.3755 45.3263 97.9462 45.3263ZM97.9526 44.4061C98.2426 44.4061 98.4628 44.2833 98.6133 44.0377C98.7634 43.7922 98.8386 43.4826 98.8386 43.1085C98.8386 42.7356 98.7634 42.4257 98.6133 42.1792C98.4628 41.933 98.2426 41.8096 97.9526 41.8096C97.6556 41.8096 97.4315 41.933 97.2804 42.1792C97.1293 42.4257 97.0538 42.7356 97.0538 43.1085C97.0538 43.4826 97.1293 43.7922 97.2804 44.0377C97.4315 44.2833 97.6556 44.4061 97.9526 44.4061Z" fill="white"/>
<path d="M102.146 46.9095C101.575 46.9095 101.126 46.7961 100.801 46.5696C100.474 46.3428 100.276 46.0675 100.206 45.7437L101.295 45.5964C101.342 45.7118 101.436 45.8174 101.575 45.9131C101.714 46.0087 101.914 46.0565 102.173 46.0565C102.429 46.0565 102.64 45.9948 102.807 45.8717C102.974 45.7492 103.058 45.5476 103.058 45.2668V44.4836H103.008C102.93 44.6604 102.793 44.8209 102.598 44.9657C102.404 45.1098 102.137 45.1815 101.798 45.1815C101.479 45.1815 101.19 45.1062 100.929 44.9554C100.668 44.8048 100.461 44.5751 100.308 44.2665C100.154 43.9582 100.077 43.5666 100.077 43.0917C100.077 42.6051 100.156 42.1999 100.313 41.8768C100.471 41.553 100.68 41.31 100.94 41.1478C101.2 40.985 101.486 40.9036 101.795 40.9036C102.033 40.9036 102.231 40.9443 102.392 41.0251C102.552 41.1052 102.682 41.2053 102.781 41.3249C102.881 41.4438 102.957 41.5614 103.008 41.6777H103.053V40.9591H104.22V45.2836C104.22 45.6384 104.131 45.9366 103.954 46.178C103.776 46.42 103.532 46.6022 103.22 46.7247C102.91 46.8478 102.551 46.9095 102.146 46.9095ZM102.171 44.2885C102.455 44.2885 102.674 44.1825 102.83 43.9705C102.985 43.7586 103.063 43.4639 103.063 43.0865C103.063 42.711 102.986 42.4105 102.831 42.1857C102.677 41.9608 102.456 41.8483 102.171 41.8483C101.879 41.8483 101.658 41.964 101.506 42.1947C101.354 42.4248 101.278 42.722 101.278 43.0865C101.278 43.4561 101.354 43.7492 101.507 43.9653C101.661 44.1809 101.882 44.2885 102.171 44.2885Z" fill="white"/>
<path d="M104.591 45.2423V40.9592H105.768V45.2423H104.591ZM105.173 40.4073C104.999 40.4073 104.85 40.3485 104.725 40.2302C104.599 40.1123 104.536 39.9704 104.536 39.805C104.536 39.6396 104.599 39.4984 104.725 39.3811C104.85 39.2641 104.999 39.2053 105.173 39.2053C105.348 39.2053 105.497 39.2641 105.622 39.3811C105.748 39.4984 105.81 39.6396 105.81 39.805C105.81 39.9704 105.748 40.1123 105.622 40.2302C105.497 40.3485 105.348 40.4073 105.173 40.4073Z" fill="white"/>
<path d="M108.073 45.3263C107.638 45.3263 107.264 45.2368 106.949 45.0575C106.634 44.8775 106.391 44.6226 106.221 44.2923C106.052 43.9624 105.968 43.5718 105.968 43.1201C105.968 42.68 106.052 42.2936 106.221 41.9608C106.391 41.6273 106.63 41.3682 106.938 41.1827C107.247 40.9966 107.61 40.9036 108.025 40.9036C108.399 40.9036 108.737 40.9837 109.038 41.144C109.339 41.3036 109.578 41.5443 109.755 41.8664C109.932 42.1889 110.02 42.5928 110.02 43.0787V43.4044H107.13V43.407C107.13 43.7269 107.217 43.9789 107.39 44.1631C107.563 44.3476 107.797 44.4397 108.092 44.4397C108.289 44.4397 108.459 44.398 108.603 44.3143C108.747 44.23 108.849 44.1062 108.908 43.9434L109.996 44.0158C109.913 44.4132 109.703 44.7311 109.366 44.9696C109.029 45.2074 108.598 45.3263 108.073 45.3263ZM107.13 42.6677H108.913C108.911 42.4138 108.83 42.2038 108.669 42.0383C108.51 41.8729 108.302 41.7902 108.046 41.7902C107.784 41.7902 107.569 41.8761 107.402 42.0474C107.234 42.218 107.144 42.4248 107.13 42.6677Z" fill="white"/>
<path d="M113.75 42.1805L112.673 42.2477C112.643 42.1101 112.569 41.9918 112.449 41.8936C112.33 41.7947 112.168 41.7449 111.963 41.7449C111.781 41.7449 111.627 41.7837 111.501 41.8613C111.374 41.9382 111.312 42.0406 111.314 42.1689C111.312 42.2716 111.352 42.3582 111.434 42.4286C111.516 42.4994 111.655 42.5563 111.853 42.5992L112.621 42.7543C113.437 42.9243 113.846 43.3111 113.848 43.9149C113.848 44.1961 113.766 44.4423 113.603 44.6542C113.44 44.8662 113.216 45.0313 112.932 45.1492C112.648 45.2672 112.324 45.3263 111.958 45.3263C111.396 45.3263 110.948 45.208 110.615 44.9709C110.282 44.734 110.087 44.4109 110.032 44.0015L111.189 43.9395C111.226 44.1146 111.311 44.2468 111.444 44.3363C111.578 44.4251 111.75 44.4694 111.96 44.4694C112.167 44.4694 112.333 44.4287 112.458 44.3466C112.584 44.2649 112.649 44.1612 112.652 44.0351C112.646 43.8232 112.464 43.681 112.106 43.6086L111.373 43.46C110.551 43.2946 110.141 42.8868 110.146 42.2361C110.143 41.8235 110.306 41.4981 110.635 41.2603C110.964 41.0225 111.401 40.9036 111.944 40.9036C112.479 40.9036 112.902 41.0179 113.21 41.2461C113.519 41.4745 113.699 41.786 113.75 42.1805Z" fill="white"/>
<rect y="36.3826" width="3.79833" height="17.4521" transform="rotate(-34.2783 0 36.3826)" fill="#5E17EB"/>
<rect x="75.9297" y="3.93701" width="4.36709" height="11.3537" transform="rotate(-64.3595 75.9297 3.93701)" fill="#5E17EB"/>
</svg>
